<svg id="Capa_1" data-name="Capa 1" xmlns="http://www.w3.org/2000/svg" viewBox="0 0 450 450"><defs><style>.cls-1{fill:#0a1c26;}.cls-2{fill:#009688;}.cls-3{fill:#44e3d3;}</style></defs><rect class="cls-1" y="0.5" width="449" height="450"/><path class="cls-2" d="M213.31,166.51h0l55.34,30.87a36,36,0,0,1,18,31.17h0a36,36,0,0,1-36,36H236.28v12.06a13.73,13.73,0,0,0,20.44,12l29.95-16.78h0a44.36,44.36,0,0,1-22.23,38.45h0c-22.74,13.1-51.13-3.32-51.13-29.56v-39.6h38a12.44,12.44,0,0,0,12.44-12.44h0a12.43,12.43,0,0,0-6.26-10.79l-20.77-10.91A46.55,46.55,0,0,1,213.31,166.51Z"/><path class="cls-3" d="M167.07,142.28a42,42,0,0,1,15.48,32.48V216H217V173.57a43.18,43.18,0,0,1,15.55,33.07v35.47A41.76,41.76,0,0,1,217,274.57V231.94H182.55V274a43.36,43.36,0,0,1-15.48,33.09Z"/><path class="cls-3" d="M170.82,151.44a38.19,38.19,0,0,1,8,23.32v45h41.94V182.86a39.34,39.34,0,0,1,8,23.78v35.47a38,38,0,0,1-8,23.36V228.19H178.8V274a39.57,39.57,0,0,1-8,23.74V151.44m-7.49-16.25V314.31h0a46.89,46.89,0,0,0,23-40.32V235.68h27v45.95h0a45.42,45.42,0,0,0,23-39.52V206.64a46.73,46.73,0,0,0-23-40.27h0v45.85h-27V174.76a45.57,45.57,0,0,0-23-39.57Z"/></svg>