<svg id="Capa_1" data-name="Capa 1" xmlns="http://www.w3.org/2000/svg" viewBox="0 0 450 450"><defs><style>.cls-1{fill:#0a1c26;}.cls-2{fill:#9fc131;stroke:#9fc131;}.cls-2,.cls-3{stroke-miterlimit:10;stroke-width:1.51px;}.cls-3{fill:#dbf227;stroke:#dbf227;}</style></defs><rect class="cls-1" y="0.5" width="450" height="450"/><path class="cls-2" d="M271.3,241a50.69,50.69,0,0,0,15.31-36.25c0-28.52-23.82-51.65-53.2-51.65a54.3,54.3,0,0,0-18.84,3.35v21.68q.77-.53,1.56-1l.21-.48.36.16a33.83,33.83,0,0,1,16.71-4.37c18.38,0,33.28,14.46,33.28,32.3s-14.9,32.31-33.28,32.31a33.49,33.49,0,0,1-28-14.8l-8.85,19.78a54.48,54.48,0,0,0,58.73,9.79l17.93,31H295.5Z"/><path class="cls-3" d="M214.91,130.55H194.67l8.25,22h9.22V288.66a9.35,9.35,0,0,1-9.56,9.24l-11.42-.11c-8.19,0-14.79-2.24-14.79-10.23h5.72l7.84-22.06h-16a19.2,19.2,0,0,0-19.44,19h0c0,19,9.61,35,37.83,35h12.89c15.5,0,28.07-12.27,28.07-27.41V148.5A18.17,18.17,0,0,0,214.91,130.55Z"/></svg>