<svg id="Capa_1" data-name="Capa 1" xmlns="http://www.w3.org/2000/svg" viewBox="0 0 450 450"><defs><style>.cls-1{fill:#0a1c26;}.cls-2{fill:#9b1a6c;}.cls-3{fill:#ff2a6a;}</style></defs><rect class="cls-1" y="0.5" width="450" height="450"/><path class="cls-2" d="M171,310.12h0c14.44,8.33,27.76.37,36.1-14.07l56.67-98.15h0c-14.44-8.34-27.67-.37-36,14.06Z"/><path class="cls-2" d="M262.31,164.15h12.24a0,0,0,0,1,0,0v12.57A12.24,12.24,0,0,1,262.31,189h0a12.24,12.24,0,0,1-12.24-12.24v-.33A12.24,12.24,0,0,1,262.31,164.15Z" transform="matrix(0.87, 0.5, -0.5, 0.87, 123.42, -107.5)"/><path class="cls-3" d="M194.91,136.5h0c-17,0-24,13.76-24,30.74V281.36l.09,29.51h0c17,0,23.94-13.76,23.94-30.74Z"/></svg>